<?xml version="1.0" encoding="utf-8"?>
<!-- Generator: Adobe Illustrator 23.0.3, SVG Export Plug-In . SVG Version: 6.00 Build 0)  -->
<svg version="1.1" xmlns="http://www.w3.org/2000/svg" xmlns:xlink="http://www.w3.org/1999/xlink" x="0px" y="0px"
	 viewBox="0 0 1400 1400" style="enable-background:new 0 0 1400 1400;" xml:space="preserve">
<style type="text/css">
	.st0{fill:transparent;}
	.st1{fill:#1F5EDB;}
	.st2{fill:#00CBFF;}
	.st3{fill:url(#SVGID_1_);}
	.st4{fill:url(#SVGID_2_);}
	.st5{fill:url(#SVGID_3_);}
	.st6{fill:url(#SVGID_4_);}
	.st7{fill:url(#SVGID_5_);}
	.st8{fill:url(#SVGID_6_);}
	.st9{fill:url(#SVGID_7_);}
	.st10{fill:url(#SVGID_8_);}
	.st11{fill:url(#SVGID_9_);}
	.st12{fill:url(#SVGID_10_);}
	.st13{fill:url(#SVGID_11_);}
	.st14{fill:url(#SVGID_12_);}
	.st15{fill:url(#SVGID_13_);}
	.st16{fill:url(#SVGID_14_);}
	.st17{fill:url(#SVGID_15_);}
	.st18{fill:url(#SVGID_16_);}
	.st19{fill:url(#SVGID_17_);}
	.st20{fill:url(#SVGID_18_);}
</style>
<g id="background">
	<rect y="-1.55" class="st0" width="1400" height="1400"/>
</g>
<g id="objects">
	<g>
		<rect x="644.5" y="197.79" class="st1" width="5" height="987.19"/>
		<rect x="549" y="197.79" class="st1" width="5" height="987.19"/>
		<rect x="453.5" y="197.79" class="st1" width="5" height="987.19"/>
		<rect x="358" y="197.79" class="st1" width="5" height="987.19"/>
		<rect x="262.5" y="197.79" class="st1" width="5" height="987.19"/>
		<rect x="215.84" y="253.22" class="st1" width="478.14" height="5"/>
		<rect x="215.84" y="333.37" class="st1" width="478.14" height="5"/>
		<rect x="215.84" y="413.51" class="st1" width="478.14" height="5"/>
		<rect x="215.84" y="493.66" class="st1" width="478.14" height="5"/>
		<rect x="215.84" y="573.81" class="st1" width="478.14" height="5"/>
		<rect x="215.84" y="653.96" class="st1" width="478.14" height="5"/>
		<rect x="215.84" y="734.11" class="st1" width="478.14" height="5"/>
		<rect x="215.84" y="814.25" class="st1" width="478.14" height="5"/>
		<rect x="215.84" y="894.4" class="st1" width="478.14" height="5"/>
		<rect x="215.84" y="974.55" class="st1" width="478.14" height="5"/>
		<rect x="215.84" y="1054.7" class="st1" width="478.14" height="5"/>
		<rect x="215.84" y="1134.84" class="st1" width="478.14" height="5"/>
	</g>
	<g>
		<g>
			<path class="st0" d="M674.37,1070.55v-746c0,0-204-59-229,137c0,0-143,25-102,203c-76,35-60,200,39,214c0,0-13,160,165,142
				C547.37,1020.55,571.37,1118.55,674.37,1070.55z"/>
			<g>
				<path class="st2" d="M622.32,1086.8c-11.69,0-22.51-2.37-32.38-7.1c-30.33-14.55-41.97-46.62-44.78-55.92
					c-55.54,5.15-98.24-6.5-126.95-34.65c-22.92-22.48-32.26-51.41-36.05-71.73c-3.17-16.96-3.13-30.64-2.92-36.3
					c-22.67-3.89-42.57-15.96-57.69-35.02c-13.89-17.51-23.56-40.95-27.23-66c-3.6-24.54-1.35-49.49,6.32-70.24
					c8.09-21.89,21.65-38.07,39.29-46.96c-13.25-59.39-7.55-108.21,16.94-145.13c29.18-44,75.17-56.38,85.82-58.72
					c7.47-55.19,29.92-95.43,66.74-119.62c35.94-23.61,79.12-27.17,109.03-26c32.29,1.26,55.78,7.96,56.76,8.25l2.17,0.63v750.17
					l-1.73,0.81C656.29,1082.28,638.47,1086.8,622.32,1086.8z M549.66,1017.3l0.62,2.53c0.09,0.39,9.94,38.98,42.3,54.47
					c21.41,10.25,47.91,8.34,78.79-5.68V326.85c-6.54-1.67-27.23-6.44-53.33-7.45c-28.98-1.12-70.79,2.32-105.36,25.04
					c-35.74,23.49-57.39,63.02-64.33,117.48l-0.28,2.19l-2.18,0.38c-0.53,0.09-53.08,9.83-84.07,56.64
					c-23.83,35.98-29.05,84-15.52,142.74l0.55,2.38l-2.22,1.02c-17.24,7.94-30.5,23.38-38.37,44.65
					c-7.33,19.83-9.47,43.73-6.01,67.29c3.52,24.02,12.75,46.44,25.99,63.14c14.75,18.59,34.3,30.09,56.55,33.23l2.8,0.4l-0.23,2.82
					c-0.05,0.65-4.71,65.14,37.08,106.08c27.81,27.24,69.74,38.24,124.62,32.69L549.66,1017.3z"/>
				<polygon class="st2" points="538.37,473.55 532.37,473.55 532.37,433.31 587.36,378.31 586.95,316.94 592.95,316.9 
					593.38,380.78 538.37,435.79 				"/>
				<polygon class="st2" points="674.37,583.94 601.37,583.94 601.37,501.55 607.37,501.55 607.37,577.94 674.37,577.94 				"/>
				<polygon class="st2" points="674.37,613.3 560.37,613.3 560.37,544.55 518.37,544.55 518.37,538.55 566.37,538.55 566.37,607.3 
					674.37,607.3 				"/>
				<rect x="422.37" y="636.66" class="st2" width="252" height="6"/>
				<polygon class="st2" points="450.99,582.92 421.13,553.06 344.39,553.06 344.39,547.06 423.61,547.06 455.24,578.68 				"/>
				<polygon class="st2" points="511.04,733.98 297.97,733.98 297.97,727.98 508.56,727.98 562.13,674.41 674.37,674.41 
					674.37,680.41 564.61,680.41 				"/>
				<polygon class="st2" points="466.88,733.1 432.23,698.45 385.37,698.45 385.37,692.45 434.71,692.45 471.12,728.86 				"/>
				<polygon class="st2" points="538.36,782.3 435.37,782.3 435.37,776.3 535.88,776.3 598.13,714.05 674.37,714.05 674.37,720.05 
					600.61,720.05 				"/>
				<polygon class="st2" points="480.99,820.92 392.37,820.92 392.37,814.92 478.5,814.92 516.25,777.18 520.49,781.42 				"/>
				<polygon class="st2" points="607.37,877.55 601.37,877.55 601.37,805.13 674.37,805.13 674.37,811.13 607.37,811.13 				"/>
				<polygon class="st2" points="474.31,899.49 470.07,895.25 530.13,835.19 604.37,835.19 604.37,841.19 532.61,841.19 				"/>
				<polygon class="st2" points="674.37,1026.43 629.13,1026.43 577.81,975.11 582.05,970.87 631.61,1020.43 674.37,1020.43 				"/>
				<rect x="548.37" y="920.47" class="st2" width="126" height="6"/>
				<polygon class="st2" points="457.49,1012.26 453.25,1008.02 490.43,970.85 512.37,970.85 512.37,976.85 492.91,976.85 				"/>
				<path class="st2" d="M535.37,501.55c-8.55,0-15.5-6.95-15.5-15.5s6.95-15.5,15.5-15.5s15.5,6.95,15.5,15.5
					S543.92,501.55,535.37,501.55z M535.37,476.55c-5.24,0-9.5,4.26-9.5,9.5s4.26,9.5,9.5,9.5s9.5-4.26,9.5-9.5
					S540.61,476.55,535.37,476.55z"/>
				<path class="st2" d="M604.37,504.55c-8.55,0-15.5-6.95-15.5-15.5s6.95-15.5,15.5-15.5s15.5,6.95,15.5,15.5
					S612.92,504.55,604.37,504.55z M604.37,479.55c-5.24,0-9.5,4.26-9.5,9.5s4.26,9.5,9.5,9.5s9.5-4.26,9.5-9.5
					S609.61,479.55,604.37,479.55z"/>
				<path class="st2" d="M505.87,557.05c-8.55,0-15.5-6.95-15.5-15.5s6.95-15.5,15.5-15.5s15.5,6.95,15.5,15.5
					S514.42,557.05,505.87,557.05z M505.87,532.05c-5.24,0-9.5,4.26-9.5,9.5s4.26,9.5,9.5,9.5s9.5-4.26,9.5-9.5
					S511.11,532.05,505.87,532.05z"/>
				<path class="st2" d="M461.47,605.49c-8.55,0-15.5-6.95-15.5-15.5s6.95-15.5,15.5-15.5s15.5,6.95,15.5,15.5
					S470.02,605.49,461.47,605.49z M461.47,580.49c-5.24,0-9.5,4.26-9.5,9.5s4.26,9.5,9.5,9.5s9.5-4.26,9.5-9.5
					S466.71,580.49,461.47,580.49z"/>
				<path class="st2" d="M409.87,655.16c-8.55,0-15.5-6.95-15.5-15.5s6.95-15.5,15.5-15.5s15.5,6.95,15.5,15.5
					S418.42,655.16,409.87,655.16z M409.87,630.16c-5.24,0-9.5,4.26-9.5,9.5s4.26,9.5,9.5,9.5s9.5-4.26,9.5-9.5
					S415.11,630.16,409.87,630.16z"/>
				<path class="st2" d="M372.87,710.95c-8.55,0-15.5-6.95-15.5-15.5s6.95-15.5,15.5-15.5s15.5,6.95,15.5,15.5
					S381.42,710.95,372.87,710.95z M372.87,685.95c-5.24,0-9.5,4.26-9.5,9.5s4.26,9.5,9.5,9.5s9.5-4.26,9.5-9.5
					S378.11,685.95,372.87,685.95z"/>
				<path class="st2" d="M422.87,794.8c-8.55,0-15.5-6.95-15.5-15.5s6.95-15.5,15.5-15.5s15.5,6.95,15.5,15.5
					S431.42,794.8,422.87,794.8z M422.87,769.8c-5.24,0-9.5,4.26-9.5,9.5s4.26,9.5,9.5,9.5s9.5-4.26,9.5-9.5
					S428.11,769.8,422.87,769.8z"/>
				<path class="st2" d="M379.87,833.55c-8.55,0-15.5-6.95-15.5-15.5s6.95-15.5,15.5-15.5s15.5,6.95,15.5,15.5
					S388.42,833.55,379.87,833.55z M379.87,808.55c-5.24,0-9.5,4.26-9.5,9.5s4.26,9.5,9.5,9.5s9.5-4.26,9.5-9.5
					S385.11,808.55,379.87,808.55z"/>
				<path class="st2" d="M463.81,921.79c-8.55,0-15.5-6.95-15.5-15.5s6.95-15.5,15.5-15.5s15.5,6.95,15.5,15.5
					S472.36,921.79,463.81,921.79z M463.81,896.79c-5.24,0-9.5,4.26-9.5,9.5s4.26,9.5,9.5,9.5s9.5-4.26,9.5-9.5
					S469.05,896.79,463.81,896.79z"/>
				<path class="st2" d="M604.37,905.55c-8.55,0-15.5-6.95-15.5-15.5s6.95-15.5,15.5-15.5s15.5,6.95,15.5,15.5
					S612.92,905.55,604.37,905.55z M604.37,880.55c-5.24,0-9.5,4.26-9.5,9.5s4.26,9.5,9.5,9.5s9.5-4.26,9.5-9.5
					S609.61,880.55,604.37,880.55z"/>
				<path class="st2" d="M535.87,938.97c-8.55,0-15.5-6.95-15.5-15.5s6.95-15.5,15.5-15.5s15.5,6.95,15.5,15.5
					S544.42,938.97,535.87,938.97z M535.87,913.97c-5.24,0-9.5,4.26-9.5,9.5s4.26,9.5,9.5,9.5s9.5-4.26,9.5-9.5
					S541.11,913.97,535.87,913.97z"/>
				<path class="st2" d="M524.87,989.35c-8.55,0-15.5-6.95-15.5-15.5s6.95-15.5,15.5-15.5s15.5,6.95,15.5,15.5
					S533.42,989.35,524.87,989.35z M524.87,964.35c-5.24,0-9.5,4.26-9.5,9.5s4.26,9.5,9.5,9.5s9.5-4.26,9.5-9.5
					S530.11,964.35,524.87,964.35z"/>
				<path class="st2" d="M571.2,979.79c-8.55,0-15.5-6.95-15.5-15.5s6.95-15.5,15.5-15.5s15.5,6.95,15.5,15.5
					S579.75,979.79,571.2,979.79z M571.2,954.79c-5.24,0-9.5,4.26-9.5,9.5s4.26,9.5,9.5,9.5s9.5-4.26,9.5-9.5
					S576.44,954.79,571.2,954.79z"/>
			</g>
		</g>
		<g>
			<linearGradient id="SVGID_1_" gradientUnits="userSpaceOnUse" x1="712.2963" y1="702.7837" x2="1067.4023" y2="688.8032">
				<stop  offset="0" style="stop-color:#FEAC5E"/>
				<stop  offset="0.4946" style="stop-color:#C779D0"/>
				<stop  offset="1" style="stop-color:#8CC63F"/>
			</linearGradient>
			<path class="st3" d="M725.63,1070.55v-746c0,0,204-59,229,137c0,0,143.47,33.12,102,203c76,35,60,200-39,214c0,0,13,160-165,142
				C852.63,1020.55,828.63,1118.55,725.63,1070.55z"/>
			<linearGradient id="SVGID_2_" gradientUnits="userSpaceOnUse" x1="732.3993" y1="649.873" x2="922.9366" y2="649.873">
				<stop  offset="0" style="stop-color:#DBE42C"/>
				<stop  offset="1" style="stop-color:#6AD419"/>
			</linearGradient>
			<path class="st4" d="M732.71,660.36c-3.7-31.82,24.08-203.15,162.81-137.1c107.55,51.2-135.69,47.35-140.1,128.65
				s108.62,75.6,101.16,115.8S750.35,811.85,732.71,660.36z"/>
			<linearGradient id="SVGID_3_" gradientUnits="userSpaceOnUse" x1="852.4735" y1="770.7079" x2="1652.1613" y2="932.8823">
				<stop  offset="0" style="stop-color:#8E2DE2"/>
				<stop  offset="1" style="stop-color:#4A00E0"/>
			</linearGradient>
			<path class="st5" d="M835.29,627.16c-4.86,0.52-54.52-0.78-37.05,44.66c17.48,45.44,88.78,41.77,85.98,94.98
				s-104.85,30.15-96.47,97.95c8.39,67.81,91.03,49.63,96.55,0c5.51-49.63,29.39-87.34,68.42-116.58
				C1011.45,704.2,894.62,620.79,835.29,627.16z"/>
			<linearGradient id="SVGID_4_" gradientUnits="userSpaceOnUse" x1="830.1661" y1="910.282" x2="2163.9109" y2="946.6315">
				<stop  offset="0" style="stop-color:#FF63DE"/>
				<stop  offset="1" style="stop-color:#B122E5"/>
			</linearGradient>
			<path class="st6" d="M950.63,779.3c0,0-41.24,14.85-41.94,78.46c-0.7,63.61-23.85,92.97-95.81,89.48s-68.04,107.65-25.61,98.56
				c42.43-9.09,37.54-68.73,84.37-72.81c46.83-4.08,72-23.06,72.7-66.7s-9.09-60.41,33.55-68.1
				C1020.53,830.5,1007.25,762.69,950.63,779.3z"/>
			<linearGradient id="SVGID_5_" gradientUnits="userSpaceOnUse" x1="1079.6433" y1="635.0486" x2="1503.254" y2="616.8738">
				<stop  offset="0" style="stop-color:#FDC830"/>
				<stop  offset="1" style="stop-color:#F37335"/>
			</linearGradient>
			<path class="st7" d="M949.93,571.16c-3.93,0.39-60.82-3.5-37.05,39.15c23.77,42.64,74.8,27.26,82.49,67.11
				c7.69,39.84,42.64,34.25,43.34,14.68c0.7-19.57-18.17-13.59-5.59-52.93C1045.7,599.82,998.86,566.27,949.93,571.16z"/>
			<linearGradient id="SVGID_6_" gradientUnits="userSpaceOnUse" x1="379.4388" y1="382.5029" x2="991.787" y2="449.6096">
				<stop  offset="0" style="stop-color:#00C6FF"/>
				<stop  offset="1" style="stop-color:#0072FF"/>
			</linearGradient>
			<path class="st8" d="M781.47,381.72c-7.43,5.76-52.65,46.58-24.68,94.83s33.07-13.74,79.9-26.32
				c46.83-12.58,72.04,24.47,78.31-16.08S843.68,333.49,781.47,381.72z"/>
		</g>
	</g>
	<linearGradient id="SVGID_7_" gradientUnits="userSpaceOnUse" x1="639.044" y1="193.2371" x2="975.9754" y2="239.3729">
		<stop  offset="0" style="stop-color:#FF839D"/>
		<stop  offset="1" style="stop-color:#F50B9A"/>
	</linearGradient>
	<path class="st9" d="M755.92,277.64c0,0,74.77-143.64,176.8-111.03C1013.62,192.47,790.03,240.25,755.92,277.64z"/>
	<linearGradient id="SVGID_8_" gradientUnits="userSpaceOnUse" x1="896.5552" y1="272.4137" x2="1223.7002" y2="290.5884">
		<stop  offset="0" style="stop-color:#FDC830"/>
		<stop  offset="1" style="stop-color:#F37335"/>
	</linearGradient>
	<path class="st10" d="M932.77,342.8c-3,3.62,134.82-200.24,244.7-98.24C1269.22,329.72,967.22,301.21,932.77,342.8z"/>
	<linearGradient id="SVGID_9_" gradientUnits="userSpaceOnUse" x1="1084.672" y1="576.0096" x2="1325.0269" y2="576.0096">
		<stop  offset="0" style="stop-color:#DBE42C"/>
		<stop  offset="1" style="stop-color:#6AD419"/>
	</linearGradient>
	<path class="st11" d="M1084.67,585.44c0,0,188.74-83.85,233.48-12.5S1178.34,583.91,1084.67,585.44z"/>
	<linearGradient id="SVGID_10_" gradientUnits="userSpaceOnUse" x1="1052.3076" y1="443.0248" x2="1134.5314" y2="443.0248">
		<stop  offset="0" style="stop-color:#FF839D"/>
		<stop  offset="1" style="stop-color:#F50B9A"/>
	</linearGradient>
	<path class="st12" d="M1052.52,456.01c-3.41,1.28,35.42-46.14,73.63-17.71S1059.97,453.22,1052.52,456.01z"/>
	<linearGradient id="SVGID_11_" gradientUnits="userSpaceOnUse" x1="1143.5306" y1="848.8188" x2="1431.8796" y2="841.4791">
		<stop  offset="0" style="stop-color:#FF63DE"/>
		<stop  offset="1" style="stop-color:#B122E5"/>
	</linearGradient>
	<path class="st13" d="M1098.19,845.6c-2.33-0.04,45.2-27.03,98.8,3.26C1250.57,879.16,1128.94,846.07,1098.19,845.6z"/>
	<linearGradient id="SVGID_12_" gradientUnits="userSpaceOnUse" x1="1201.2761" y1="956.5302" x2="1517.9357" y2="957.5787">
		<stop  offset="0" style="stop-color:#DBE42C"/>
		<stop  offset="1" style="stop-color:#6AD419"/>
	</linearGradient>
	<path class="st14" d="M1052.31,947.24c-10.67-0.96,129.43-31,158.14,12.5S1070.97,948.91,1052.31,947.24z"/>
	<linearGradient id="SVGID_13_" gradientUnits="userSpaceOnUse" x1="933.5003" y1="1102.0623" x2="1313.0724" y2="1199.5765">
		<stop  offset="0" style="stop-color:#FF63DE"/>
		<stop  offset="1" style="stop-color:#B122E5"/>
	</linearGradient>
	<path class="st15" d="M879.03,1057.76c0,0,105.85-20.97,172.69,41.94c66.85,62.91,9.84,131.07-68.79,39.84
		C941.37,1091.31,906.23,1069.9,879.03,1057.76z"/>
	<linearGradient id="SVGID_14_" gradientUnits="userSpaceOnUse" x1="1133.3446" y1="678.3966" x2="1440.5674" y2="677.3481">
		<stop  offset="0" style="stop-color:#FDC830"/>
		<stop  offset="1" style="stop-color:#F37335"/>
	</linearGradient>
	<circle class="st16" cx="1172.18" cy="678.26" r="17.9"/>
	<linearGradient id="SVGID_15_" gradientUnits="userSpaceOnUse" x1="1221.4779" y1="364.3605" x2="1487.1084" y2="360.1663">
		<stop  offset="0" style="stop-color:#8E2DE2"/>
		<stop  offset="1" style="stop-color:#4A00E0"/>
	</linearGradient>
	<circle class="st17" cx="1083.74" cy="366.54" r="11.65"/>
	<linearGradient id="SVGID_16_" gradientUnits="userSpaceOnUse" x1="879.035" y1="263.3452" x2="897.2712" y2="263.3452">
		<stop  offset="0" style="stop-color:#DBE42C"/>
		<stop  offset="1" style="stop-color:#6AD419"/>
	</linearGradient>
	<circle class="st18" cx="888.15" cy="263.35" r="9.12"/>
	<linearGradient id="SVGID_17_" gradientUnits="userSpaceOnUse" x1="988.2062" y1="1020.012" x2="1015.4683" y2="1020.012">
		<stop  offset="0" style="stop-color:#DBE42C"/>
		<stop  offset="1" style="stop-color:#6AD419"/>
	</linearGradient>
	<circle class="st19" cx="1001.84" cy="1020.01" r="13.63"/>
	<linearGradient id="SVGID_18_" gradientUnits="userSpaceOnUse" x1="818.9235" y1="1100.7406" x2="1030.7289" y2="1172.0415">
		<stop  offset="0" style="stop-color:#FDC830"/>
		<stop  offset="1" style="stop-color:#F37335"/>
	</linearGradient>
	<circle class="st20" cx="828.57" cy="1103.99" r="15.12"/>
</g>
</svg>
