<svg id="Capa_1" enable-background="new 0 0 512 512" height="512" viewBox="0 0 512 512" width="512" xmlns="http://www.w3.org/2000/svg"><g><g><path d="m273.386 144.422c-.774-4.077-4.706-6.754-8.785-5.981-4.077.775-6.755 4.707-5.981 8.785.09.473 2.297 11.726 10.6 22.885 7.75 10.414 22.403 22.828 48.2 22.828 37.166 0 45.099 24.475 45.461 25.663 1.183 4.074 5.65 6.378 9.661 5.01 3.724-1.271 5.855-5.366 4.788-9.147-.422-1.493-10.887-36.555-59.91-36.555-36.923-.001-43.767-32.153-44.034-33.488z"/><path d="m324.943 107.18c-4.119-.368-7.778 2.7-8.137 6.835-.039.449-.904 11.135 3.733 23.258 4.332 11.324 14.359 26.192 37.529 32.714 32.619 9.182 33.561 32.549 33.587 33.664.037 4.071 3.45 7.449 7.521 7.445 4.095-.003 7.512-3.426 7.508-7.521-.001-1.451-.535-35.667-44.543-48.055-32.365-9.111-30.456-38.973-30.362-40.202.359-4.135-2.701-7.778-6.836-8.138z"/><path d="m399.137 43.725c-3.439-2.324-8.111-1.419-10.434 2.02s-1.419 8.111 2.02 10.434c66.529 44.946 106.248 119.645 106.248 199.821 0 64.366-25.065 124.879-70.579 170.392-45.513 45.513-106.026 70.579-170.392 70.579s-124.879-25.065-170.392-70.579c-45.514-45.513-70.579-106.026-70.579-170.392s25.065-124.879 70.579-170.392c45.513-45.513 106.026-70.579 170.392-70.579 38.588 0 75.448 8.844 109.557 26.286 3.693 1.889 8.223.426 10.112-3.27 1.889-3.695.426-8.222-3.27-10.112-36.246-18.535-75.409-27.933-116.399-27.933-68.38 0-132.667 26.629-181.02 74.98-48.351 48.353-74.98 112.64-74.98 181.02s26.629 132.667 74.98 181.02c48.353 48.351 112.64 74.98 181.02 74.98s132.667-26.629 181.02-74.98c48.351-48.353 74.98-112.64 74.98-181.02 0-85.175-42.192-164.53-112.863-212.275z"/><path d="m418.155 390.453c2.289 0 4.502-1.076 5.914-2.879 29.682-37.863 45.37-83.36 45.37-131.574 0-117.691-95.749-213.44-213.44-213.44-48.214 0-93.711 15.689-131.574 45.37-3.495 2.738-3.819 8.087-.678 11.228l68.161 68.161c2.934 2.934 7.693 2.934 10.627 0 2.935-2.934 2.935-7.693 0-10.627l-62.039-62.039c33.783-24.278 73.535-37.063 115.504-37.063 109.404 0 198.41 89.006 198.41 198.41 0 41.969-12.786 81.721-37.064 115.502l-64.194-64.194h49.73c9.565 0 17.346-7.782 17.346-17.346v-29.592c0-9.565-7.781-17.346-17.346-17.346h-114.014l-65.079-65.079c-2.934-2.934-7.693-2.934-10.627 0-2.935 2.934-2.935 7.693 0 10.627l199.68 199.68c1.413 1.413 3.326 2.201 5.313 2.201zm-32.877-132.4h17.605c1.277 0 2.317 1.04 2.317 2.317v29.592c0 1.277-1.04 2.317-2.317 2.317h-17.605zm-15.029 0v34.225h-32.126l-34.225-34.225z"/><path d="m256 454.41c-42.625 0-83.245-13.311-117.468-38.494-3.342-2.459-8.046-1.744-10.507 1.599-2.459 3.343-1.744 8.047 1.599 10.507 36.823 27.096 80.523 41.418 126.376 41.418 48.212 0 93.708-15.688 131.57-45.367 3.494-2.739 3.819-8.086.678-11.228l-289.093-289.093c-3.142-3.142-8.489-2.816-11.228.678-29.679 37.862-45.367 83.358-45.367 131.57 0 57.47 22.509 111.375 63.38 151.785 2.951 2.917 7.709 2.892 10.627-.061 2.918-2.951 2.891-7.709-.061-10.627-37.993-37.564-58.917-87.674-58.917-141.097 0-41.967 12.785-81.718 37.061-115.499l102.522 102.522h-88.056c-9.564 0-17.346 7.781-17.346 17.346v29.592c0 9.565 7.782 17.346 17.346 17.346h152.34l110.042 110.043c-33.78 24.276-73.531 37.06-115.498 37.06zm-80.182-162.131h-66.701c-1.277 0-2.317-1.04-2.317-2.317v-29.592c0-1.277 1.04-2.317 2.317-2.317h66.701zm15.029 0v-34.225h21.355l34.226 34.225z"/></g></g></svg>