<?xml version="1.0" encoding="utf-8"?>
<!-- Generator: Adobe Illustrator 18.0.0, SVG Export Plug-In . SVG Version: 6.00 Build 0)  -->
<!DOCTYPE svg PUBLIC "-//W3C//DTD SVG 1.1//EN" "http://www.w3.org/Graphics/SVG/1.1/DTD/svg11.dtd" [
	<!ENTITY ns_flows "http://ns.adobe.com/Flows/1.0/">
	<!ENTITY ns_extend "http://ns.adobe.com/Extensibility/1.0/">
	<!ENTITY ns_ai "http://ns.adobe.com/AdobeIllustrator/10.0/">
	<!ENTITY ns_graphs "http://ns.adobe.com/Graphs/1.0/">
]>
<svg version="1.1" id="Layer_1" xmlns:x="&ns_extend;" xmlns:i="&ns_ai;" xmlns:graph="&ns_graphs;"
	 xmlns="http://www.w3.org/2000/svg" xmlns:xlink="http://www.w3.org/1999/xlink" xmlns:a="http://ns.adobe.com/AdobeSVGViewerExtensions/3.0/"
	 x="0px" y="0px" viewBox="0 0 1400 980" enable-background="new 0 0 1400 980" xml:space="preserve">
<g>
	<rect x="0" fill="#FFFFFF" width="1400" height="980"/>
	<g>
		<g>
			<path fill="#E7EEEF" d="M1000.2,236.8c0,0,0.4,0.3,1.1,0.9c0.7,0.6,1.7,1.5,3.1,2.7c1.3,1.2,3,2.6,4.9,4.4c1.9,1.7,4.2,3.7,6.5,6
				c2.4,2.4,4.9,5,7.8,7.9c1.4,1.4,2.9,3,4.4,4.5c1.5,1.6,2.9,3.3,4.5,5c1.5,1.7,3.1,3.6,4.7,5.4c0.8,0.9,1.6,1.9,2.5,2.9
				c0.8,1,1.7,1.9,2.5,3c3.2,4.1,6.6,8.5,10.1,13c0.4,0.6,0.9,1.1,1.3,1.7c0.4,0.6,0.8,1.2,1.3,1.8c0.8,1.2,1.7,2.4,2.5,3.7
				c1.7,2.5,3.4,5,5.2,7.5c0.9,1.3,1.8,2.5,2.6,3.9c0.8,1.3,1.7,2.7,2.5,4.1c1.7,2.7,3.4,5.5,5.1,8.3c0.9,1.4,1.8,2.8,2.6,4.3
				c0.8,1.5,1.6,3,2.4,4.5c1.6,3,3.3,6,4.9,9.1c0.8,1.5,1.7,3.1,2.4,4.7c0.8,1.6,1.5,3.2,2.3,4.8c1.5,3.2,3,6.5,4.6,9.7
				c0.4,0.8,0.8,1.6,1.2,2.5c0.3,0.8,0.7,1.7,1,2.5c0.7,1.7,1.4,3.4,2.1,5.1c1.4,3.4,2.8,6.9,4.2,10.3c2.5,7,5.1,14.2,7.3,21.4
				c1.1,3.7,2.1,7.3,3.2,11c0.5,1.8,1.1,3.7,1.6,5.5l0.4,1.4l0.3,1.4l0.6,2.8c0.9,3.8,1.7,7.5,2.6,11.3l0.6,2.8
				c0.2,0.9,0.4,1.9,0.6,2.8l1,5.7c0.6,3.8,1.3,7.6,1.9,11.5c0.4,1.9,0.6,3.8,0.8,5.7c0.2,1.9,0.5,3.8,0.7,5.8
				c0.5,3.8,0.9,7.7,1.3,11.5c0.2,3.8,0.5,7.6,0.7,11.5c0.1,1.9,0.2,3.8,0.3,5.7c0.1,1.9,0.3,3.8,0.2,5.7c0,3.8,0,7.5,0,11.3
				c0,1.9,0,3.7,0,5.6l0,1.4l0,0.7l0,0.5l0,0.3c0,0.9-0.1,1.8-0.1,2.7c-0.1,1.8-0.1,3.6-0.2,5.4c0,0.9-0.1,1.8-0.1,2.7
				c-0.1,0.9-0.1,1.8-0.2,2.7c-0.3,3.6-0.4,7.3-0.8,10.8c-0.3,3.5-0.6,7-1.1,10.5c-0.8,6.9-1.8,13.7-2.9,20.2
				c-0.6,3.3-1.2,6.5-1.8,9.6c-0.7,3.1-1.3,6.2-2,9.3c-1.5,6-2.9,11.9-4.5,17.4c-3.2,11.1-6.5,21.1-9.9,29.7
				c-0.4,1.1-0.8,2.2-1.2,3.2c-0.4,1-0.8,2.1-1.3,3.1c-0.8,2-1.6,3.9-2.4,5.8c-1.6,3.7-3.2,7-4.6,10.1c-2.9,6-5.3,10.6-7,13.8
				c-0.8,1.6-1.5,2.8-2,3.6c-0.4,0.8-0.7,1.2-0.7,1.2s0.1-0.5,0.4-1.3c0.2-0.9,0.6-2.2,1.1-3.9c0.5-1.7,1.1-3.8,1.8-6.3
				c0.6-2.5,1.4-5.3,2.3-8.5c0.8-3.2,1.7-6.7,2.7-10.6c0.8-3.9,2-8,2.9-12.5c0.5-2.2,1-4.5,1.5-6.9c0.5-2.4,0.9-4.8,1.4-7.3
				c0.5-2.5,0.9-5.1,1.4-7.7c0.2-1.3,0.5-2.6,0.7-4c0.2-1.4,0.4-2.7,0.6-4.1c1.8-11,3.3-23,4.4-35.7c0.2-3.2,0.5-6.4,0.7-9.6
				c0.3-3.3,0.4-6.6,0.5-9.9c0.3-6.7,0.5-13.5,0.5-20.3c0-0.9,0-1.7,0-2.6c0-0.9,0-1.8,0-2.7c0-1.8,0-3.6-0.1-5.4c0-0.9,0-1.8,0-2.7
				l-0.1-2.5c-0.1-1.8-0.2-3.5-0.2-5.3c-0.2-3.5-0.3-7.1-0.5-10.7c0-1.8-0.2-3.6-0.4-5.4c-0.2-1.8-0.3-3.6-0.5-5.4
				c-0.3-3.6-0.6-7.2-0.9-10.9c-0.5-3.6-1-7.2-1.4-10.9c-0.2-1.8-0.5-3.6-0.7-5.5c-0.2-1.8-0.4-3.6-0.8-5.4
				c-0.6-3.6-1.3-7.2-1.9-10.9l-0.9-5.4c-0.1-0.9-0.3-1.8-0.5-2.7l-0.6-2.7c-0.8-3.6-1.6-7.2-2.3-10.7c-0.7-3.6-1.7-7.1-2.6-10.6
				c-0.9-3.5-1.8-7-2.7-10.6c-0.4-1.8-1-3.5-1.5-5.2c-0.5-1.7-1.1-3.4-1.6-5.2c-1.1-3.4-2-6.9-3.1-10.3c-1.2-3.3-2.4-6.7-3.5-10
				c-0.6-1.7-1.2-3.3-1.7-5c-0.3-0.8-0.6-1.6-0.9-2.5c-0.3-0.8-0.6-1.6-1-2.4c-1.3-3.2-2.6-6.4-3.8-9.6c-1.3-3.2-2.4-6.3-3.9-9.3
				c-1.4-3-2.7-6.1-4-9c-0.7-1.5-1.3-3-2-4.4c-0.7-1.5-1.4-2.9-2.1-4.3c-1.4-2.9-2.8-5.7-4.2-8.5c-0.7-1.4-1.4-2.8-2-4.1
				c-0.7-1.4-1.4-2.7-2.1-4c-1.4-2.6-2.8-5.2-4.2-7.8c-0.7-1.3-1.4-2.5-2.1-3.8c-0.3-0.6-0.7-1.3-1-1.9c-0.3-0.6-0.7-1.2-1.1-1.8
				c-2.8-4.8-5.6-9.4-8.2-13.8c-2.7-4.4-5.4-8.4-7.8-12.2c-1.2-1.9-2.4-3.8-3.6-5.6c-1.2-1.7-2.4-3.4-3.5-5.1
				c-2.2-3.3-4.3-6.3-6.2-9c-3.9-5.4-7-9.6-9.1-12.4c-1.1-1.4-1.8-2.6-2.4-3.3C1000.5,237.2,1000.2,236.8,1000.2,236.8z"/>
			<path fill="#E7EEEF" d="M280.9,523.8c0,0-0.2-2.1-0.5-6.1c-0.1-2-0.3-4.4-0.5-7.3c-0.1-1.4-0.2-3-0.3-4.6c0-1.7-0.1-3.4-0.1-5.3
				c-0.1-3.7-0.1-7.9-0.2-12.4c0.1-4.5,0.3-9.4,0.5-14.6c0.1-1.3,0.1-2.6,0.2-4c0.1-1.3,0.2-2.7,0.3-4.1c0.2-2.8,0.5-5.6,0.7-8.6
				c0.1-1.5,0.2-3,0.4-4.5c0.2-1.5,0.4-3,0.6-4.5c0.4-3.1,0.8-6.2,1.3-9.4c0.4-3.2,1-6.4,1.6-9.8c0.6-3.3,1.2-6.7,1.9-10.1
				c0.7-3.4,1.6-6.9,2.4-10.4c0.9-3.5,1.6-7.1,2.7-10.7c1-3.6,2-7.2,3.1-10.9c0.3-0.9,0.5-1.8,0.8-2.8c0.3-0.9,0.6-1.8,0.9-2.7
				c0.6-1.8,1.2-3.7,1.8-5.5c2.3-7.5,5.4-14.9,8.3-22.5c0.7-1.9,1.6-3.8,2.4-5.6c0.8-1.9,1.7-3.8,2.5-5.7c0.8-1.9,1.7-3.8,2.5-5.7
				c0.9-1.9,1.8-3.7,2.8-5.6c1.9-3.7,3.7-7.6,5.6-11.3c2.1-3.7,4.1-7.4,6.2-11.2c8.5-14.8,18-29.4,28.6-43.3c0.6-0.9,1.3-1.8,2-2.6
				l2.1-2.5l4.1-5.1l4.1-5.1c1.4-1.6,2.9-3.3,4.3-4.9c1.4-1.6,2.9-3.3,4.3-4.9c1.4-1.6,2.8-3.3,4.4-4.8c3-3.1,6-6.2,9-9.3
				c1.5-1.6,3-3,4.6-4.5c1.5-1.5,3.1-2.9,4.6-4.4c1.5-1.5,3.1-2.9,4.6-4.3c1.6-1.4,3.2-2.8,4.8-4.1c1.6-1.4,3.2-2.7,4.7-4.1l2.4-2
				l1.2-1l1.2-1c3.2-2.6,6.5-5.1,9.6-7.6c12.9-9.9,25.9-18.8,38.7-26.2c6.3-3.9,12.8-7.2,18.9-10.5c1.5-0.8,3.1-1.6,4.6-2.3
				c1.5-0.7,3.1-1.5,4.6-2.2c3-1.4,6-2.9,8.9-4.2c3-1.3,5.9-2.5,8.7-3.7c1.4-0.6,2.8-1.2,4.2-1.8c1.4-0.6,2.8-1.2,4.1-1.7
				c2.8-1,5.4-2,8.1-2.9c2.6-0.9,5.1-1.9,7.6-2.7c5-1.6,9.7-3,14-4.3c1.1-0.3,2.1-0.6,3.2-0.9c1-0.3,2.1-0.5,3.1-0.8
				c2-0.5,3.9-1,5.7-1.5c1.8-0.5,3.5-0.9,5.1-1.3c1.6-0.4,3.2-0.7,4.6-1c2.8-0.6,5.3-1,7.2-1.4c2-0.4,3.5-0.7,4.5-0.9
				c1-0.2,1.5-0.3,1.5-0.3s-2,0.8-5.7,2.3c-1.8,0.7-4.1,1.7-6.8,2.7c-1.3,0.6-2.8,1.1-4.3,1.8c-1.5,0.7-3.1,1.4-4.8,2.1
				c-1.7,0.7-3.5,1.5-5.3,2.3c-0.9,0.4-1.9,0.8-2.9,1.2c-1,0.4-2,0.9-3,1.4c-4,2-8.4,4-13,6.2c-4.5,2.3-9.4,4.8-14.5,7.5
				c-5,2.7-10.3,5.7-15.7,8.8c-2.7,1.6-5.4,3.3-8.2,5c-1.4,0.8-2.8,1.7-4.2,2.5c-1.4,0.8-2.8,1.8-4.2,2.7
				c-5.6,3.7-11.5,7.4-17.3,11.6c-11.8,8.1-23.6,17.5-35.4,27.5c-11.9,10-23.4,21.2-34.7,32.9c-2.8,3-5.5,6-8.3,9
				c-1.4,1.5-2.7,3.1-4.1,4.6c-1.3,1.6-2.7,3.1-4,4.7l-4,4.7l-3.9,4.8l-3.9,4.8l-1.9,2.4c-0.6,0.8-1.2,1.7-1.9,2.5
				c-2.5,3.3-4.9,6.6-7.4,9.9c-2.4,3.3-4.7,6.8-7,10.2c-1.2,1.7-2.4,3.4-3.5,5.1c-1.1,1.7-2.2,3.5-3.3,5.2c-1.1,1.7-2.2,3.4-3.3,5.2
				l-1.6,2.6l-1.5,2.6c-8.5,13.9-15.8,28.2-22.5,42.1c-1.6,3.5-3.2,7.1-4.7,10.5c-0.4,0.9-0.8,1.7-1.2,2.6c-0.4,0.9-0.7,1.8-1.1,2.6
				c-0.7,1.7-1.4,3.5-2.1,5.2c-0.7,1.7-1.4,3.5-2.1,5.2c-0.4,0.9-0.7,1.7-1.1,2.6c-0.3,0.9-0.6,1.7-0.9,2.6
				c-1.2,3.4-2.5,6.8-3.7,10.2c-1.3,3.3-2.3,6.7-3.4,10c-1.1,3.3-2.1,6.6-3.2,9.8c-0.9,3.2-1.8,6.4-2.7,9.6
				c-0.9,3.1-1.8,6.2-2.5,9.2c-3.2,12.1-5.6,23.4-7.5,33.5c-0.9,5-1.7,9.8-2.5,14.2c-0.6,4.4-1.2,8.4-1.7,12.1
				c-0.3,1.8-0.5,3.6-0.8,5.2c-0.2,1.6-0.4,3.2-0.5,4.6c-0.3,2.9-0.6,5.3-0.8,7.3C281.2,521.7,280.9,523.8,280.9,523.8z"/>
			<path fill="#E7EEEF" d="M697.8,129.6c-217.7,0-394.2,176.5-394.2,394.2c0,131.5,64.4,248,163.4,319.6
				c40.9-6.2,82.4-6.6,123.7-5.6c28.4,0.7,56.9,2.1,85.3,2.8c29.2,0.7,58.4,0.4,87.7,0.6c55.5,0.4,110.9,1,166.4,1.1
				c98.2-71.7,161.9-187.6,161.9-318.5C1092,306.1,915.5,129.6,697.8,129.6z"/>
		</g>
		<path fill="#625390" d="M1065.6,858.1H304.7c-9.7,0-17.6-7.9-17.6-17.6l0,0c0-9.7,7.9-17.6,17.6-17.6h760.9
			c9.7,0,17.6,7.9,17.6,17.6l0,0C1083.2,850.2,1075.3,858.1,1065.6,858.1z"/>
		<g>
			<rect x="383.8" y="319.5" fill="#6F7173" width="472" height="10.4"/>
			<rect x="370.2" y="317.1" fill="#49463C" width="35.9" height="15.3"/>
			<rect x="833.3" y="317.1" fill="#49463C" width="35.9" height="15.3"/>
			<g>
				<rect x="412.1" y="336.7" fill="#FFFFFF" width="406" height="308.2"/>
				<rect x="421.9" y="347.2" fill="#9BD3BA" width="386.4" height="288.9"/>
				<g>
					<polygon fill="#85C8A9" points="450.1,456.1 450.1,522.5 454.7,527.6 454.7,407.5 473.5,446.7 473.5,499.3 482.5,499.3 
						482.5,456.1 513.9,456.1 513.9,477.3 537.6,477.3 537.6,419.7 571,419.7 571,471.1 593.3,471.1 593.3,435.7 601,427.9 
						630.2,427.9 636.5,437.3 636.5,504.8 653.9,504.8 653.9,402.8 688.8,369.8 688.8,438.1 734.8,438.1 734.8,419.7 752.9,419.7 
						752.9,474.2 764,474.2 764,425.1 778,407.8 808.3,407.8 808.3,347.2 782.7,347.2 782.7,364.9 760.4,365.7 760.4,347.2 
						693.1,347.2 693.1,359.7 686.3,359.7 686.3,347.2 666.2,347.2 666.2,374.2 654.6,377.3 654.6,347.2 553.9,347.2 553.9,356.4 
						549.2,356.4 549.2,378 510.8,378 510.8,355.2 488.7,355.2 488.7,347.2 453.1,347.2 453.1,364.9 430.8,365.7 430.8,347.2 
						421.9,347.2 421.9,440.5 441.4,440.5 					"/>
					<polygon fill="#6CB69F" points="808.3,407.8 778,407.8 764,425.1 764,474.2 752.9,474.2 752.9,419.7 734.8,419.7 734.8,438.1 
						688.8,438.1 688.8,369.8 653.9,402.8 653.9,504.8 636.5,504.8 636.5,437.3 630.2,427.9 601,427.9 593.3,435.7 593.3,471.1 
						571,471.1 571,419.7 537.6,419.7 537.6,477.3 513.9,477.3 513.9,456.1 482.5,456.1 482.5,499.3 473.5,499.3 473.5,446.7 
						454.7,407.5 454.7,527.6 450.1,522.5 450.1,456.1 441.4,440.5 421.9,440.5 421.9,553 421.9,636.1 808.3,636.1 					"/>
				</g>
				<g opacity="0.5"  a:adobe-blending-mode="softLight">
					<polygon fill="#FFFFFF"  a:adobe-blending-mode="normal" points="642.7,346.5 467.9,635 515.3,635 690,346.5 					"/>
					<polygon fill="#FFFFFF"  a:adobe-blending-mode="normal" points="712.3,346.5 537.6,635 559.9,635 734.6,346.5 					"/>
				</g>
				<rect x="610.4" y="340.6" fill="#FFFFFF" width="9.4" height="304.2"/>
			</g>
			<g>
				<g>
					<g>
						<rect x="708.4" y="312" fill="#53477A" width="119" height="345.3"/>
						<rect x="724.9" y="312" fill="#625390" width="13" height="345.3"/>
						<rect x="752.7" y="312" fill="#625390" width="13" height="345.3"/>
						<rect x="780.6" y="312" fill="#625390" width="13" height="345.3"/>
						<rect x="808.4" y="312" fill="#625390" width="13" height="345.3"/>
					</g>
					<g>
						<rect x="411.9" y="312" fill="#53477A" width="119" height="345.3"/>
						<rect x="428.3" y="312" fill="#625390" width="13" height="345.3"/>
						<rect x="456.2" y="312" fill="#625390" width="13" height="345.3"/>
						<rect x="484" y="312" fill="#625390" width="13" height="345.3"/>
						<rect x="511.9" y="312" fill="#625390" width="13" height="345.3"/>
					</g>
				</g>
			</g>
		</g>
		<g>
			<circle fill="#625390" cx="697.6" cy="237.1" r="44.8"/>
			<g>
				<g>
					<g>
						<circle fill="#FFFFFF" cx="697.6" cy="237.1" r="36.6"/>
					</g>
				</g>
			</g>
			<circle fill="#1A285F" cx="697.6" cy="237.1" r="3.5"/>
			<rect x="696.8" y="216" fill="#1A285F" width="1.6" height="21.1"/>
			
				<rect x="706.9" y="233.3" transform="matrix(-0.7502 0.6612 -0.6612 -0.7502 1402.921 -33.0257)" fill="#1A285F" width="1.6" height="30.5"/>
			<rect x="697.2" y="202.9" fill="#1A285F" width="0.8" height="6.9"/>
			<rect x="724.9" y="236.7" fill="#1A285F" width="6.9" height="0.8"/>
			<rect x="697.2" y="264.4" fill="#1A285F" width="0.8" height="6.9"/>
			<rect x="663.4" y="236.7" fill="#1A285F" width="6.9" height="0.8"/>
		</g>
		<circle fill="#88D0E1" cx="1073.3" cy="531.6" r="4"/>
		<circle fill="#88D0E1" cx="1080.3" cy="513.4" r="8"/>
		<circle fill="#88D0E1" cx="1054.3" cy="494.3" r="14.3"/>
		<g>
			<rect x="866.2" y="396.5" fill="#B42E35" width="75" height="5.9"/>
			<polygon fill="#F94349" points="941.2,402.3 903.7,402.3 866.2,402.3 846.8,487.3 903.7,487.3 960.6,487.3 			"/>
			<rect x="899.9" y="487.3" fill="#6D6F71" width="6.7" height="326.2"/>
			<rect x="928.6" y="487.3" fill="#F9F96F" width="2.9" height="62.6"/>
			<ellipse fill="#F9F96F" cx="930.3" cy="551.2" rx="3.8" ry="3.8"/>
			<path fill="#434546" d="M943.1,813.5h-79.7c-3.4,0-6.1,2.7-6.1,6.1v3.1h91.9v-3.1C949.2,816.2,946.5,813.5,943.1,813.5z"/>
		</g>
		<g>
			<path fill="#7895B1" d="M757.4,767.3c2.2-1.5,6.4-1.5,7.6,2.5c1.2,4,9.8,8.6,13.8,3.1c2.8-3.8,4.2-4.7,4.7-2.9
				c1.8,5.9-2.3,12.2-2.2,19.1c0,1.2-1.8,2.8-3,3c-10.9,2.3-59.5-8.5-59.5-8.5s-0.5-4,2.3-6.4c2.1-1.8,15.7-4.2,20.3-3.5
				C748.4,774.6,753.5,770.1,757.4,767.3z"/>
			<path fill="#39506E" d="M780.9,792.4c-0.9,1.8-2.5,2.9-4,2.7l-57-9c-1.4-0.2-2-1.3-1.7-2.3c0.2-0.6,0.8-1.7,2.2-1.5l57,9
				c1.4,0.2,3.3-2.6,3.8-2C781.3,789.3,781.6,791.1,780.9,792.4z"/>
			<path fill="#F6CCAA" d="M1057.5,580c-0.5-3.4-0.9-8.4-3.5-5.9c-2.6,2.5-15.3,5.4-9.6,9.5c4.6,3.3,8.4,7.4,9.4,6.3
				C1055,588.6,1058.3,585.7,1057.5,580z"/>
			<path fill="#F6CCAA" d="M957.2,700.9l-92.1-7.8c-0.6-0.1-1.1-0.1-1.7-0.1l-36.7-3.1c-3.4-0.3-6.6,0.5-9.3,1.9
				c-2.9,1.2-5.8,3.3-7.9,6.4l-34.8,61.2c-4.7,6.8-6.7,8.4-3.4,10.6c4.6,3.1,9.4,6,14-0.7l42-48.6l67.3,5.7c0.2,0,0.4,0,0.7,0
				l59.3,5c10.7,0.9,19.9-3.9,20.5-10.8l0.5-5.6C976.1,708.1,967.9,701.8,957.2,700.9z"/>
			<polygon fill="#191415" points="859.9,684 856.7,719.9 953.4,727.3 954.3,693.3 			"/>
			<path fill="#D58518" d="M851.1,742.3c-2.8-1.3-6.4,0.8-8.2,4.7L808.7,822c-1.8,3.9-1,8,1.8,9.3l0,0c2.8,1.3,6.4-0.8,8.2-4.7
				l34.2-75.1C854.7,747.7,853.9,743.5,851.1,742.3L851.1,742.3z"/>
			<path fill="#D58518" d="M957.8,740.3c2.8-1.1,6.3,1.2,7.8,5.1l29.9,76.8c1.5,4,0.5,8.1-2.3,9.2l0,0c-2.8,1.1-6.3-1.2-7.8-5.1
				l-29.9-76.8C954,745.5,955,741.4,957.8,740.3L957.8,740.3z"/>
			<path fill="#52A335" d="M1060.3,628.9c-7.3-7.9-30.6-2.5-39.6,5.8l-68.8,55.8c-9,8.2-8.6,31.2-1.3,39.1l5.9,6.4
				c7.3,7.9,20.4,7.7,29.4-0.6l77.2-70.9c9-8.2,10.4-21.3,3.1-29.3L1060.3,628.9z"/>
			<path fill="#F6CCAA" d="M941.8,683.4l-6.6-1.9c0,0-16.4-1.9-18.9,1.2c-2.6,3.1-6.5,14.6-4.2,15.6c2.3,0.9,7.1-6.4,7.1-6.4
				s15.5,6.1,19.9,4.2C943.4,694.3,947.6,683.6,941.8,683.4z"/>
			<path fill="#A72429" d="M1134.3,637.4L992.4,749.2c-7.1,5.6-15.3,7.9-21.7,6.7c-3.4-0.6-6.3-2.2-8.3-4.8
				c-1.1-1.5-1.9-3.2-2.3-5.1c-1.3-5.5,0.3-12.2,4.6-17.8c1.8-2.3,4.1-4.5,6.9-6.2c20.8-12.6,59.1-39.3,86.5-66.8
				c28.8-28.8,46.2-58.1,46.2-58.1c2.8-2.2,6.3-3,10.2-2.9c11.2,0.3,24.8,8.5,29.1,14.1c0.9,1.2,1.5,2.4,1.9,3.8
				C1147.8,619.8,1143.4,630.2,1134.3,637.4z"/>
			<path fill="#A72429" d="M982.2,743.1l0,0.1c-0.1,1.5-0.4,2.9-0.9,4.2c-1.7,4-5.6,7.1-10.5,8.5c-2,0.6-4.3,0.9-6.6,0.8L839,751.8
				l-1.6-0.1c-3.4-0.1-6.6-1-9.2-2.5c-4.8-2.7-7.9-7.3-7.7-12.4c0.3-7.6,2.3-19.8,11.2-20.2c0.3,0,0.5,0,0.8,0l132,11.6l0.5,0
				C974.8,728.7,982.4,735.3,982.2,743.1z"/>
			<path fill="#9B5515" d="M1023.5,705.4c-0.2,2.7-2.7,4.7-5.6,4.5l-116-6.7c-3-0.2-5.2-2.5-5.1-5.1l0,0c0.2-2.7,2.7-4.7,5.6-4.5
				l116,6.7C1021.4,700.5,1023.7,702.8,1023.5,705.4L1023.5,705.4z"/>
			<g>
				<path fill="#D58518" d="M1031.9,705.9c-0.3,4.7-4.2,8.3-8.8,8c-4.6-0.3-8.1-4.3-7.9-9c0.3-4.7,4.2-8.3,8.8-8
					C1028.6,697.2,1032.1,701.2,1031.9,705.9z"/>
				<path fill="#8E4E12" d="M1028.3,705.7c-0.2,2.7-2.4,4.7-5,4.5c-2.6-0.2-4.6-2.4-4.5-5.1c0.2-2.7,2.4-4.7,5-4.5
					C1026.4,700.8,1028.4,703.1,1028.3,705.7z"/>
			</g>
			<path fill="#316D2A" d="M1068.1,644.9c-2.3,4-9.8,4.1-16.6,0.1c-6.8-4-10.5-10.4-8.2-14.4c2.3-4,9.8-4.1,16.6-0.1
				C1066.8,634.4,1070.4,640.8,1068.1,644.9z"/>
			<path fill="#D58518" d="M976.6,778.2c0.1,2.7-2.3,5-5.3,5.1l-134.9,4.5c-3,0.1-5.5-2-5.6-4.7l0,0c-0.1-2.7,2.3-5,5.3-5.1
				l134.9-4.5C974,773.4,976.5,775.5,976.6,778.2L976.6,778.2z"/>
			<path fill="#F6CCAA" d="M1053.4,642.3c4.9,4,10.9,4.8,13.3,1.8l12.8-15.8c2.4-3,0.4-8.6-4.5-12.6l0,0c-4.9-4-10.9-4.8-13.3-1.8
				l-12.8,15.8C1046.4,632.7,1048.4,638.3,1053.4,642.3L1053.4,642.3z"/>
			<path fill="#F6CCAA" d="M1131.7,586.5c0,0-23.8,31.7-36.9,39.4c-4.6,2.7-30.4,6.7-34.5,2.8l-10.3-9.8c-2.3-2.2-2.9-12.3-2.5-21.3
				c0-0.3,0-0.6,0-0.8c0.3-6.2,1-11.8,1.8-13.7c2.2-5,7.3-11.2,13.1-17.1c0.2-0.3,0.5-0.5,0.7-0.7c11-11.1,24-21.2,24-21.2
				c3.7-3.8,9.9-3.8,14,0l29.9,28.5C1135.1,576.4,1135.4,582.7,1131.7,586.5z"/>
			<path fill="#5A2F0F" d="M1109.7,575.7c0,0-2.4,15.7-8.6,18.8c-6.1,3.1-14,8.6-14,8.6s9.5-7.2,14.9-0.1
				c3.5,4.7-6.3,18.8-20.9,25.8c0,0,8.5,4.3,26.2-9c32.8-24.7,36.5-37.3,14.4-44.4C1099.8,568.5,1111.6,574.4,1109.7,575.7z"/>
			<path fill="#A72429" d="M851.1,736.9c0,0.7-0.2,1.4-0.6,1.9l-0.2,0.2L839,751.8l-38.9,43.9c-3.3,5.2-10.2,6.7-15.3,3.4
				c-0.5-0.3-0.9-0.7-1.4-1c-2.5-2.2-3.8-5.4-3.7-8.6c0.1-2,0.6-3.9,1.7-5.7l39.8-62.1c2.4-3.6,6.5-5.5,10.5-5
				c1.7,0.2,3.3,0.7,4.8,1.7C841.1,721.3,851.3,731.1,851.1,736.9z"/>
			<path fill="#69B54C" d="M1050.7,653.7c-2.7-3-9.2-5.9-11-4.3l-33.7,35.1l-59.5-1.6c-2.9-0.1-5.3,2-5.4,6c-0.1,4,0.4,7,3.3,7.1
				l65.3,3.8c4.6,0.7,42.8-37.8,42.8-37.8C1054.2,660.4,1053.4,656.7,1050.7,653.7z"/>
			<polygon fill="#080607" points="1067.5,567.3 1066.5,568.7 1079.5,577.9 1076.9,571.5 			"/>
			<path fill="#E8BD9D" d="M1057.3,607c0,0-1.9-2.6-4.7-4.1c-1.4-0.7-3.5-1.6-4.8-2.3c0.1-0.3,0.2-0.5,0.3-0.8
				c1.5,0.1,5.9,0.7,7.6,2.5C1057.7,604.5,1057.3,607,1057.3,607z"/>
			<path fill="#080607" d="M1065.1,572.4c0.7,2.2,1.8,3.7,3.7,4.9c1.5,1,4.7,0.8,5.6,1.8c-3.2,0.1-12.6-1.3-9.1-6.7"/>
			<polygon fill="#1B1617" points="772.3,762.4 763.4,775.6 776.9,783.4 785.3,769.2 			"/>
			<g>
				<path fill="#87A4C3" d="M760.2,766.2c2.5-0.8,6.5,0.6,6.4,4.8c-0.1,4.2,6.6,11.2,12.2,7.3c3.8-2.7,5.4-3.2,5.4-1.2
					c-0.2,6.1-6,10.8-8.2,17.4c-0.4,1.2-2.6,2.1-3.8,1.9c-11.1-1.3-53.7-27-53.7-27s0.8-3.9,4.2-5.3c2.6-1,16.2,1,20.4,3.1
					C749.3,770.3,755.5,767.6,760.2,766.2z"/>
				<path fill="#465F82" d="M774.5,797.5c-1.4,1.4-3.3,2-4.6,1.3l-51.2-26.6c-1.3-0.7-1.4-1.8-0.8-2.7c0.4-0.5,1.3-1.4,2.6-0.7
					l51.2,26.6c1.3,0.7,4-1.4,4.2-0.7C775.8,794.7,775.5,796.4,774.5,797.5z"/>
			</g>
			<path fill="#353132" d="M858.5,718.3c-0.1,1.5-1.4,2.6-2.9,2.5l0,0c-1.5-0.1-2.6-1.4-2.5-2.9l2.7-34.4c0.1-1.5,1.4-2.6,2.9-2.5
				l0,0c1.5,0.1,2.6,1.4,2.5,2.9L858.5,718.3z"/>
			<path fill="#5A2F0F" d="M1075.4,543.9c0,0,0.5,2.3,2.5,4.2c2,1.9-1-2.6,1.1-4.1c2.1-1.5,1.1,4.3,3.5,5.5c0,0,0.5-4.1,1-5.6
				c0.5-1.5,27.9,22.7,27.4,31.1c-0.5,8.5,22.7,16.1,26.8,9.1c4.1-7-9.9-42.1-23.6-49.5c-7.5-4.1-7.6-3.8-7.6-3.8s4.4,5.5,2.9,6.5
				c0,0-8.8-8-12.4-6.8c0,0,5.4,3.5,6,5.3c0.6,1.9-10-3.1-12.5-3.2c-2.6-0.1-3.4,1.2-3.4,1.2s1.5-0.2,5.4,1
				C1096.2,536,1071.1,531.7,1075.4,543.9z"/>
			<path opacity="0.5" fill="#5A2F0F" d="M1113.9,536.9c-1.7-1.8-2.9-2.7-2.9-2.7s-0.4,4.4-1.8,5.4c0,0-1-5.3-4.7-4.1
				c0,0-2.3,0.8-1.7,2.7c0.6,1.9-10-3.1-12.5-3.2c-2.6-0.1-3.4,1.2-3.4,1.2s1.5-0.2,5.4,1c3.9,1.1-19.7-5.1-15.4,7.2
				c0,0-1.3,0.8,0.7,2.7c2,1.9-0.7-2.3,1.4-3.8c2.1-1.5,2.5-2.3,4.9-1.2c0,0,0.4,2,0.9,2.3c1.1,0.7,17,16.1,23.6,26.6
				c-4.5-0.7,1.1,2.6-0.2,3.5c0,0-2.4,15.7-8.6,18.8c-5.1,2.6-10.8,9.3-12.4,9.8c2.4-0.8,9.3-4.7,13.3-1.3
				c4.4,3.9-5.4,20.2-20.1,27.2c0,0,7.7,2.9,25.4-10.4c17.2-13,26.4-22.6,28.1-29.9c1.7-0.4,1.2-3.2,2-4.4
				C1139.8,577.4,1124.5,548.4,1113.9,536.9z"/>
			<path opacity="0.3" fill="#9E6723" d="M1079.5,539.3c0,0-3.3,2-1.8,3.5c1.5,1.4-0.2,0.4,1.3-0.7c1.5-1.1,0.9,0.8,2.7,1.6
				c0,0,0.4-2.4,2-2.8c1.7-0.4,4.8,1.1,4.9,0.5c0.4-1.1,24.5,21.1,24.2,27.3c-0.4,6.2,16.6,11.8,19.6,6.7c3-5.1-7.2-30.8-17.3-36.3
				c-5.5-3-5.6-2.8-5.6-2.8s3.2,4,2.1,4.8c0,0-6.4-5.8-9.1-5c0,0,4,2.6,4.4,3.9c0.5,1.4-7.3-2.3-9.2-2.3c-1.9-0.1-1.9,0.4-1.9,0.4
				s0.5,0.4,3.3,1.2C1102.1,540,1079.9,532,1079.5,539.3z"/>
			<path opacity="0.3" fill="#9E6723" d="M1111.2,579.5c0,0-2.1,13.5-7.4,16.3c-5.2,2.7-6.6,2.9-6.6,2.9s2.8-1.7,7.4,4.5
				c3,4.1-2,17-14.7,23.1c0,0,4,2.9,19.3-8.6c28.3-21.3,30.7-30.3,12.5-38.3C1106.3,572.6,1112.7,578.4,1111.2,579.5z"/>
			<path fill="#E8BD9D" d="M1093.5,601.8c0,0,9.6,0.5,6.3,6.8c-3.3,6.3-13.9,11.5-12.9,7C1087.9,611.2,1091.2,601.4,1093.5,601.8z"
				/>
			<path opacity="0.4" fill="#F76670" d="M1134.3,637.4L992.4,749.2c-7.1,5.6-15.3,7.9-21.7,6.7c-2,0.6-4.3,0.9-6.6,0.8L839,751.8
				l-38.9,43.9c-3.3,5.2-10.2,6.7-15.3,3.4c-0.5-0.3-0.9-0.7-1.4-1l44.8-48.8l10-10.9l12.1,0.8l109.7,7l21.2,1.4l0.8,0l163.4-135.2
				C1147.8,619.8,1143.4,630.2,1134.3,637.4z"/>
		</g>
		<g>
			<circle fill="#88D0E1" cx="1033.6" cy="396.7" r="78.7"/>
			<g>
				<polygon fill="#F7F71D" points="1039.1,391.8 1017.5,424.7 1034,420.1 1022.1,438.5 1033.1,436.2 1021.2,458.6 1041.8,431.6 
					1032.6,432 1041.8,413.3 1029.7,416 1049.6,391.8 				"/>
				<polygon fill="#F7F71D" points="1003.1,390.2 991.8,407.4 1000.5,405 994.2,414.6 1000,413.4 993.8,425.2 1004.6,411 
					999.8,411.3 1004.6,401.4 998.2,402.9 1008.6,390.2 				"/>
				<polygon fill="#F7F71D" points="1063.7,397.8 1052.5,415.1 1061.1,412.7 1054.9,422.3 1060.6,421.1 1054.4,432.8 1065.2,418.7 
					1060.4,418.9 1065.2,409.1 1058.8,410.5 1069.3,397.8 				"/>
				<path fill="#F6F9D8" d="M1077.1,369.5c0,0,1.2-19.6-13.4-9.2c0,0-1-5.8-5-3c0,0-11.2-22.2-22.9,1.6c0,0-6.2-18.4-16.7-2.4
					c0,0-2.7-4.7-5,2.1c0,0-17.2-17.2-24.6,7.7c0,0-11.6-2.4-10.4,10.6H979c0,0-0.2,15.1,10.9,9.2c0,0-1.2,19.6,13.4,9.2
					c0,0,1,5.8,5,3c0,0,11.2,22.2,22.9-1.6c0,0,6.2,18.4,16.7,2.4c0,0,2.7,4.7,5-2.1c0,0,17.2,17.2,24.6-7.7c0,0,11.6,2.4,10.4-10.6
					h0.1C1088.1,378.7,1088.3,363.6,1077.1,369.5z"/>
			</g>
		</g>
		<g>
			<path opacity="0.62" fill="#625390"  a:adobe-blending-mode="multiply" d="M366.9,837.3h-66.7c-1.9,0-3.5,1.6-3.5,3.5
				c0,1.9,1.6,3.5,3.5,3.5h66.7c1.9,0,3.5-1.6,3.5-3.5C370.4,838.9,368.8,837.3,366.9,837.3z"/>
			<path opacity="0.62" fill="#625390"  a:adobe-blending-mode="multiply" d="M656.9,834.4h-59.2c-4,0-7.2,3.2-7.2,7.2
				c0,4,3.2,7.2,7.2,7.2h59.2c4,0,7.2-3.2,7.2-7.2C664.1,837.7,660.9,834.4,656.9,834.4z"/>
			<path opacity="0.62" fill="#625390"  a:adobe-blending-mode="multiply" d="M591.3,831.7c0-1.9-1.6-3.5-3.5-3.5H353.1
				c-1.9,0-3.5,1.6-3.5,3.5v0c0,1.9,1.6,3.5,3.5,3.5h234.7C589.7,835.2,591.3,833.6,591.3,831.7L591.3,831.7z"/>
			<path opacity="0.62" fill="#625390"  a:adobe-blending-mode="multiply" d="M1060.7,828.2H721.1c-1.9,0-3.5,1.6-3.5,3.5v0
				c0,1.9,1.6,3.5,3.5,3.5h339.6c1.9,0,3.5-1.6,3.5-3.5v0C1064.2,829.7,1062.6,828.2,1060.7,828.2z"/>
		</g>
		<g>
			<path fill="#A72429" d="M509.7,554.4l14.9,169.5c1.5,16.7-10.9,31.5-27.6,33l-114.8,10.1c-0.2,0-0.4,0-0.6,0
				c-2.2,0.1-4.4,0.1-6.6-0.3c-13.6-2-24.5-13.1-25.7-27.4l-15.5-175.8c-1.3-14.3,7.6-27.1,20.6-31.4c2-0.7,4.2-1.2,6.4-1.4
				c0.2,0,0.4-0.1,0.6-0.1l119-1.2C497.1,527.9,508.2,537.6,509.7,554.4z"/>
			<path fill="#831E20" d="M380,559.5l15.5,175.8c1.3,14.3-7.6,27.1-20.5,31.4c-13.6-2-24.5-13.1-25.7-27.4l-15.5-175.8
				c-1.3-14.3,7.6-27.1,20.6-31.4C367.8,534.1,378.7,545.2,380,559.5z"/>
			<path fill="#831E20" d="M564.7,676.5v93.1c0,16.8-18.2,30.4-40.6,30.4h-7.2V699.1c0-0.4,0-0.8,0-1.1c0.4-9.3,10.5-16,19.7-21.3
				c1.1-0.2,2.2-0.2,3.4-0.2H564.7z"/>
			<path fill="#831E20" d="M589.8,700.7v4.7c-2.4,1.2-5.1,1.9-8,1.9h-47.7c-6.1,0-11.4-3.1-14.2-7.8c-1.4-2.3-2.2-4.9-2.2-7.7
				c0-4.3,1.9-8.1,4.8-10.9c2.4-2.3,5.6-3.8,9.1-4.3c0.8-0.2,1.6-0.2,2.5-0.2h47.7c0.6,0,1.1,0,1.6,0.1
				C587.3,682.1,589.8,690.9,589.8,700.7z"/>
			<rect x="446.6" y="737.9" fill="#C92E3F" width="127" height="93.7"/>
			<path fill="#C92E3F" d="M589.8,700.7v100.6c0,16.8-5.5,30.4-12.2,30.4H574c-6.7,0-12.2-13.6-12.2-30.4V700.7c0-0.4,0-0.8,0-1.1
				c0.1-9.3,1.9-17.6,4.7-22.9c0.3-0.2,0.7-0.2,1-0.2H585c0,0,0,0.1,0,0.1C590.4,676.5,589.8,690.9,589.8,700.7z"/>
			<path fill="#C92E3F" d="M466.9,707.3l0.1,101.6c0,14.6-5.3,22.8-22.1,22.8h-68.4c-16.8,0-30.4-11.8-30.4-26.5V703.9
				c0-8.1,18.6-20.8,35.4-20.8l8.7-3.1l62.2,0.3C469.3,680.4,466.9,692.7,466.9,707.3z"/>
			<path fill="#831E20" d="M443.3,708.6v97.6c0,14.1,1.4,25.5-15.4,25.5h-51.3c-16.8,0-30.4-11.4-30.4-25.5v-97.6
				c0-14.1,13.6-25.5,30.4-25.5h51.7C445.1,683.1,443.3,694.5,443.3,708.6z"/>
		</g>
		<g>
			<path fill="#64A538" d="M330.1,780.9c-1.1-0.8-8.3-47.3-8.3-73.9c0-26.6-1.9-55.5-11.3-71.7c-9.4-16.1-20.6-12.8-20.6-12.8
				s15.4-7.9,30.4,3.4c15,11.3,16.5,39.4,12.8,81.8c-3.8,42.4-2.6,63.2,0,71.2c2.6,8-5.6-36.3,15-70.8c20.6-34.5,27-50.7,63-62.7
				c0,0-25.1,13.9-38.6,48.8c-13.5,34.9-13.9,52.2-24,67.2c-10.1,15-14.3,20.6-14.3,22.9C334.2,786.5,330.1,780.9,330.1,780.9z"/>
			<path fill="#22622D" d="M316.5,628.1c0,0,13.8,8.4,12.1,46.4c-1.7,38-1.1,76.8,2,90.6c3.1,13.8,5.3,5.1,14.4-32.6
				c9-37.7,37.7-67.8,37.7-67.8s-26.2,29.3-35.5,63.6c-9.3,34.3-7.8,44.9-13.6,46.5c-5.8,1.6-8.9-33-6.7-72.4
				C329.2,662.9,328.9,642.4,316.5,628.1z"/>
			<path fill="#78B93A" d="M330.5,788.4c0,0-3-22.5-5.6-33.8c-2.6-11.3-6.4-21.4-6.8-24.4c-0.4-3,4.1,11.6,6.8,17.6
				c2.6,6-3-27.4-12.8-50.7c-9.8-23.3-20.6-37.1-30.8-46.5c-10.1-9.4-27.4-20.6-27.4-20.6s27.4,6.8,45,22.1
				c17.6,15.4,27.4,50.3,27.4,72.4c0,22.1,4.1,40.5,4.1,46.2c0,5.6-0.4-43.9,4.9-63.8c5.3-19.9,18-52.9,31.9-63.4
				c13.9-10.5,44.7-21.8,44.7-21.8s-22.1,7.1-33,27.8c-10.9,20.6-19.1,33.4-28.1,59.7c-9,26.3-12.8,35.3-15.8,56.3
				c-3,21-1.9,29.6-1.9,29.6L330.5,788.4z"/>
			<path fill="#338936" d="M380.9,638.7c0,0-21.4,18-35.7,56c-14.4,38-12.1,80.2-12.1,84.1c0,3.9-1.7,2.3-1.7,2.3
				S326.9,677.6,380.9,638.7z"/>
			<path fill="#338936" d="M280.2,644.7c18.6,12.3,30.4,31.8,37.8,52.3c-0.3-1.2-0.6-2.4-1-3.6C306.4,654.8,280.2,644.7,280.2,644.7
				z M330.5,766.2c0,2,0,3.4,0,4.3c-0.1-5.6-3.7-22.1-4.1-42.3c-1.9-10.1-4.5-20.8-8.4-31.3c9.9,37.8,12.5,82.3,12.5,82.3
				S330.8,774.2,330.5,766.2z"/>
			<g>
				<g>
					<polygon fill="#5B2B10" points="359.2,839.5 307.9,839.5 296.7,773.6 370.4,773.6 					"/>
					<polygon fill="#D49C43" points="369.3,779 297.8,779 293.4,775.4 373.8,775.4 					"/>
					<polygon fill="#AF7642" points="374.6,777.2 292.6,777.2 287.4,772.4 379.7,772.4 					"/>
				</g>
			</g>
		</g>
		<g>
			<path fill="#F6CCAA" d="M805.5,545.6c-2.4,3-9.8,5.2-12.2,3.7c-0.8-0.5,2.7-1.7,2.4-3.5c-0.5-2.4-9.5,3.1-9.5,3.1
				c-0.1,0-0.2,0.1-0.2,0.1c-0.5,0-1.1,0.1-1.7,0.2l-66.9,5.4c-0.1,0-0.2-0.1-0.3-0.1l-43.3-12.4c-4.9-1.4-10.2,1.6-11.8,6.8
				c-1.6,5.1,1,10.4,5.8,11.8l42.7,12.2c2.4,0.9,5.4,1.3,8.6,0.8l69.3-12.4c0.1,0,0.1,0,0.1,0c5,2,13.5-1.5,16.8-5.9
				C807.4,552.6,807.1,543.6,805.5,545.6z"/>
			<path fill="#FFFFFF" d="M655.6,529.4c-6.2,3.8-4,22.5,0.1,26.8c8.4,8.7,43.9,16.2,43.9,16.2c7.4-2,8.3-13.3,9.6-20.3
				C709.2,552.1,668.5,521.5,655.6,529.4z"/>
			<path fill="#F6CCAA" d="M666.5,471.1c2.4-3.7,5.9-9.1,6.9-5.1c1.1,4.1,11.9,13.1,3.9,15.2c-6.4,1.7-12.6,4.6-13,2.9
				C663.9,481.9,662.4,477.1,666.5,471.1z"/>
			<polygon fill="#AEADAD" points="603,520.1 644.5,517.9 636.9,526.6 609,524.8 			"/>
			<path fill="#F6CCAA" d="M637.8,527.1c0,6.7-6.4,12.1-14.4,12.1l0,0c-7.9,0-14.4-5.4-14.4-12.1v-18.6c0-6.7,6.4-12.1,14.4-12.1
				l0,0c7.9,0,14.4,5.4,14.4,12.1V527.1z"/>
			<path fill="#F6CCAA" d="M674.3,468.4c0,6.5-2.5,12.6-4.4,18.8c-0.2,0.7-4,0.7-5.6,3.4c-1.4,2.4,1.1,4,0.7,4.8
				c-6.4,13.3-22.3,18.7-34.2,12.8c-25.8-12.8-25.6-19.8-25.6-44.6c0-24.7,11.1-44.7,33-44.7S674.3,443.6,674.3,468.4z"/>
			<path fill="#F1F1F1" d="M670,530.5c-6.1,2-9.8,9.4-10.9,13.1c-0.4,3.3-2,9.9-2.3,14.2c0,0,0,0.5,0,1.5l1.7,79.9
				c0,5.6-1.4,10.8-3.7,15.2c-3.9,7-10.3,11.7-17.6,11.7h-25.9c-10.2,0-17.1-8.2-18.8-19.9c0-0.1,0-0.2,0-0.2c0-0.1,0-0.2-0.1-0.4
				c-0.2-1.7-0.3-3.5-0.3-5.4l-2.1-87.5c0-3.1,0.4-6,1.1-8.8l-1,0.8c0,0-1.2-12.1-9.9-12.9c-2.7-0.2,12.7-3.7,12.7-3.7l4,4.5
				c3.5-3.9,5-5.9,10.3-5.9l19.4,11.8l13.7-11.5c5.5,0,7.3,1.5,10.9,5.8l6-7C657.3,525.7,673.7,529.3,670,530.5z"/>
			<g>
				<path fill="#F6CCAA" d="M605.8,811.9c0,0-4.7,17.6-3.3,22.9c0.8,3,5.2,7.2,9.4,6.9c4.2-0.4,6.9-2.2,7.6-6.9
					c0.6-3.9-0.1-22.3-3.6-23.3C612.5,810.6,608.9,810.7,605.8,811.9z"/>
				<path fill="#F6CCAA" d="M643.1,810.6c0,0-4.5,17.7-2.9,22.9c0.9,2.9,5.3,7.2,9.5,6.8c4.2-0.4,6.9-2.3,7.5-7
					c0.5-3.9-0.4-22.3-3.9-23.2C649.8,809.2,646.2,809.4,643.1,810.6z"/>
				<path fill="#F1F1F1" d="M602.5,827.8c0,0-1.1,6.8,0,12.1c0.6,3.1,4.3,6.9,8.4,6.9c4.2,0,7.7-2.3,8.5-6.9c0.8-4,1.3-8.6,0.2-11.6
					c-0.6-1.6-1.4,6.4-8.7,6.4C603.7,834.8,604.1,827.3,602.5,827.8z"/>
				<path fill="#F1F1F1" d="M639.9,828.7c0,0-1,6.8,0.1,12.1c0.6,3.1,4.4,6.8,8.5,6.8c4.2,0,7.6-2.4,8.5-7c0.7-4.1,1.2-8.6,0-11.6
					c-0.6-1.6-1.3,6.4-8.6,6.5C641.2,835.6,641.5,828.1,639.9,828.7z"/>
				<path fill="#F6CCAA" d="M616.7,802.5c0,8.6,0.4,15.7-5.6,15.7l0,0c-6,0-5.7-7.6-5.7-16.2l-5.1-90.9c0-8.6,4.9-15.6,10.9-15.6
					l0,0c6,0,10.9,7,10.9,15.6L616.7,802.5z"/>
				<path fill="#F6CCAA" d="M654.5,803.2c0.4,8.7,1,14.7-5,14.9l0,0c-6,0.3-7.4-6-7.8-14.7l-8.1-92.5c-0.4-8.7,4.1-15.9,10.1-16.2
					l0,0c6-0.3,11.2,6.5,11.6,15.2L654.5,803.2z"/>
			</g>
			<path fill="#CCCCCC" d="M644.5,517.9l-17.9,20.5c0,0,10.5,3.7,14.2,10.1c3.6,6.4,16.4-22.7,16.4-22.7L644.5,517.9z"/>
			<path fill="#0B090A" d="M656.3,455c0,0,9.4-2.1,12.4-1.3c3.7,1.1,3.6,3.6,3.6,3.6s-2.1-1.2-4.4-1.6c-2.3-0.4-9,0.8-10.1,1.1
				c-1.6,0.5-4.1-0.9-1.9-1.8"/>
			<path fill="#F77172" d="M669.9,487.1c-0.4,0.7-4.6,1.7-5.6,3.4c-1,1.7,1.1,4.2,0.7,4.8c-2.4-0.5-4.7-1-6.8-1.7
				c-4.4-1.3-7.5-3-7.4-4.9c0,0,0.8-0.2,2.1-0.5C656.4,487.6,663.6,486.4,669.9,487.1z"/>
			<path fill="#0B090A" d="M667.6,463.5c0,1.8-1.5,3.3-3.3,3.3c-1.8,0-3.2-1.5-3.2-3.3c0-1.8,1.5-3.3,3.2-3.3
				C666.1,460.3,667.6,461.7,667.6,463.5z"/>
			<path fill="#69280F" d="M662.7,415.7c-0.5,0-1,0.1-1.5,0.1c-1.9-7.6-8.7-13.3-16.9-13.3c-4.6,0-8.8,1.8-12,4.8
				c-2-1-4.2-1.7-6.6-1.7c-6.6,0-12.1,4.5-13.8,10.6c-1.2-0.3-2.4-0.5-3.7-0.5c-7.9,0-14.4,6.4-14.4,14.4c0,2.8,0.8,5.4,2.3,7.7
				c-8.3,1.3-14.7,8.5-14.7,17.2c0,6.3,3.4,11.8,8.4,14.9c-3.3,4-5.2,9.2-5.2,14.8c0,13.1,10.6,23.6,23.6,23.6
				c13.1,0,23.6-10.6,23.6-23.6c0-6.8-2.9-13-7.5-17.3c3.2-3.2,5.2-7.6,5.2-12.4c0-0.1,0-0.3,0-0.4c7.8-1.7,13.7-8.7,13.7-17
				c0,0,0,0,0-0.1c0.4,0,0.7,0.1,1.1,0.1c2,0,3.9-0.3,5.6-0.9c2.4,4.7,7.2,7.9,12.8,7.9c7.9,0,14.4-6.4,14.4-14.4
				C677.1,422.1,670.6,415.7,662.7,415.7z"/>
			<path opacity="0.3" fill="#69280F" d="M665,420.5c-0.5,0-1,0.1-1.5,0.1c-1.9-7.6-8.7-13.3-16.9-13.3c-4.6,0-8.8,1.8-12,4.8
				c-2-1-4.2-1.7-6.6-1.7c-6.6,0-12.1,4.5-13.8,10.6c-1.2-0.3-2.4-0.5-3.7-0.5c-7.9,0-14.4,6.4-14.4,14.4c0,2.8,0.8,5.4,2.3,7.7
				c-8.3,1.3-14.7,8.5-14.7,17.2c0,6.3,3.4,11.8,8.4,14.9c-3.3,4-6.1,9.3-5.2,14.8c1.3,7.6,9.1,18.9,22.1,18.9
				c13.1,0,25.2-5.9,25.2-18.9c0-6.8-1.7-15.9-6.3-20.2c3.2-3.2,4-4.6,4-9.5c0-0.1,0-0.3,0-0.4c7.8-1.7,13.7-8.7,13.7-17
				c0,0,0,0,0-0.1c0.4,0,0.7,0.1,1.1,0.1c2,0,3.9-0.3,5.6-1c2.4,4.7,7.2,4.8,12.8,4.8c7.9,0,3.3-7.8,3.3-15.8
				C668.3,422.5,672.9,420.5,665,420.5z"/>
			<path fill="#CCCCCC" d="M603,520.1l23.7,18.2c0,0-9.9,5.2-12.5,12.1c-2.6,6.9-21.3-22.5-21.3-22.5L603,520.1z"/>
			<path opacity="0.3" fill="#9E6723" d="M660.5,418.1c-0.5,0-0.9,0.1-1.3,0.1c-1.7-6.8-7.8-11.8-15.1-11.8c-4.1,0-7.9,1.6-10.7,4.2
				c-1.8-0.9-3.8-1.5-5.9-1.5c-5.9,0-10.8,4-12.3,9.4c-1.1-0.3-2.1-0.5-3.3-0.5c-7.1,0-12.8,5.7-12.8,12.8c0,2.5,0.8,4.9,2,6.8
				c-7.4,1.2-13.1,7.6-13.1,15.4c0,5.6,3,10.6,7.5,13.3c-2.9,3.6-4.6,8.2-4.6,13.2c0,11.6,9.4,21.1,21.1,21.1
				c11.6,0,15.3-7,15.3-18.7c0-6.1-2.3-10.8-6.4-14.6c2.9-2.8,7.5-9.5,7.5-13.9c0-0.1,0.1-1.2,0.1-1.3c7-1.5,12.8-8.2,12.8-15.6
				c0,0,7.2-0.5,8.8-1c2.1,4.2,5.3,8.2,10.3,8.2c7.1,0,12.8-5.7,12.8-12.8C673.3,423.8,667.5,418.1,660.5,418.1z"/>
			<path fill="#CCCCCC" d="M658.5,639.2c0,2.2-0.5,5.1-0.5,5.5c0,0.9,2.1,0.7,2.1,9.8c-7.4,0.4-23.4-1.9-39.3-1.9
				c-23.8,0-27.7-4.8-28.4-6.5c0-0.1,0-0.2,0-0.2c-0.1-0.2-0.1-0.3-0.1-0.4c0,0,22.5,0.2,28.5,0.2c6,0,30.4-2.3,32.1-3.5
				c1.6-1,3.6-71.9,3.9-83L658.5,639.2z"/>
			<path fill="#413C3D" d="M662.8,701.9c0,19.3-62.4,21.3-74,8.8c-1.2-1.3-1.8-2.6-1.9-4.2c-1-33.8,0-51.3,2.8-57.8
				c1-2.4,2-3.3,2.7-3.2c17,3.6,61.6,6.6,65.7-0.8c0,0,1.7,1.7,1.7,3.8c0,1.5,0.1,3.3,0.3,5.6C660.7,664.4,662.8,682.2,662.8,701.9z
				"/>
			<path fill="#363233" d="M662.8,701.9c0,19.3-62.4,21.3-74,8.8c13.9,0.7,49-3.1,55.8-5.4c8.1-2.7,10.9-43,10.9-43
				c0.4-4.2,2.7-6.7,4.6-8.1C660.7,664.4,662.8,682.2,662.8,701.9z"/>
			<path fill="#F6CCAA" d="M609.1,694.2c-3.2-1.6-6.6-8.3-5.6-10.9c0.3-0.9,2.1,2.3,3.7,1.5c2.1-1-4.5-8.4-4.5-8.4
				c0-0.1-0.1-0.1-0.2-0.2c-0.1-0.5-0.3-1-0.5-1.6l-17.1-63.4c0-0.1,0.1-0.2,0.1-0.3l3.6-44.7c0.4-5-3.3-9.4-8.4-9.8
				c-5-0.4-9.4,3.3-9.8,8.4l-3.6,44.1c-0.4,2.6-0.2,5.5,0.9,8.5l23.9,64.1c0,0,0,0.1,0.1,0.1c-1,5.3,3.9,12.7,8.5,14.8
				C603,697.6,611.2,695.3,609.1,694.2z"/>
			<path fill="#FFFFFF" d="M589,530.4c-5.6-4.4-14.3,4.4-16.8,10.4c-5.1,12.2-7.3,31.9-8.6,43.4c-1.9,17.5,16,12.3,24.9,9.7
				C588.6,593.9,600.8,539.5,589,530.4z"/>
		</g>
	</g>
</g>
</svg>
